<?xml version="1.0" encoding="UTF-8" standalone="no"?>
<!-- Created with Inkscape (http://www.inkscape.org/) -->

<svg
   width="286.86"
   height="200.49"
   version="1.1"
   viewBox="0 0 286.86 200.49"
   id="svg12"
   sodipodi:docname="ak.svg"
   inkscape:version="1.1.2 (0a00cf5339, 2022-02-04)"
   xmlns:inkscape="http://www.inkscape.org/namespaces/inkscape"
   xmlns:sodipodi="http://sodipodi.sourceforge.net/DTD/sodipodi-0.dtd"
   xmlns="http://www.w3.org/2000/svg"
   xmlns:svg="http://www.w3.org/2000/svg">
  <defs
     id="defs16" />
  <sodipodi:namedview
     id="namedview14"
     pagecolor="#505050"
     bordercolor="#eeeeee"
     borderopacity="1"
     inkscape:pageshadow="0"
     inkscape:pageopacity="0"
     inkscape:pagecheckerboard="0"
     showgrid="false"
     inkscape:zoom="0.69828917"
     inkscape:cx="156.81183"
     inkscape:cy="194.76172"
     inkscape:window-width="1337"
     inkscape:window-height="740"
     inkscape:window-x="29"
     inkscape:window-y="0"
     inkscape:window-maximized="1"
     inkscape:current-layer="g10" />
  <g
     transform="translate(-205.97,-112.81)"
     fill="#ffffff"
     font-family="'Abyssinica SIL'"
     font-size="267.24px"
     stroke="#ffffff"
     stroke-width="11.135"
     id="g10">
    <g
       aria-label="A"
       id="text4"
       style="line-height:1.25">
      <path
         d="m 250.5547,137.89196 q 0,8.0172 -5.87928,13.89648 -5.61204,5.61204 -13.62924,5.61204 -8.0172,0 -13.89648,-5.61204 -5.61204,-5.87928 -5.61204,-13.89648 0,-8.0172 5.61204,-13.62924 5.87928,-5.87928 13.89648,-5.87928 8.0172,0 13.62924,5.87928 5.87928,5.61204 5.87928,13.62924 z m 66.00828,150.18888 q 0,4.0086 -2.93964,6.94824 -2.6724,2.93964 -6.681,2.93964 -4.0086,0 -6.94824,-2.93964 -2.93964,-2.93964 -2.93964,-6.94824 0,-4.0086 2.93964,-6.681 2.93964,-2.93964 6.94824,-2.93964 4.0086,0 6.681,2.93964 2.93964,2.6724 2.93964,6.681 z m 0,-75.09444 q 0,4.0086 -2.93964,6.94824 -2.6724,2.6724 -6.681,2.6724 -4.0086,0 -6.94824,-2.6724 -2.93964,-2.93964 -2.93964,-6.94824 0,-4.0086 2.93964,-6.681 2.93964,-2.93964 6.94824,-2.93964 4.0086,0 6.681,2.93964 2.93964,2.6724 2.93964,6.681 z m -75.89616,75.09444 q 0,4.0086 -2.93964,6.94824 -2.6724,2.93964 -6.681,2.93964 -4.0086,0 -6.94824,-2.93964 -2.93964,-2.93964 -2.93964,-6.94824 0,-4.0086 2.93964,-6.681 2.93964,-2.93964 6.94824,-2.93964 4.0086,0 6.681,2.93964 2.93964,2.6724 2.93964,6.681 z m 75.89616,-150.18888 q 0,4.0086 -2.93964,6.94824 -2.6724,2.6724 -6.681,2.6724 -4.0086,0 -6.94824,-2.6724 -2.93964,-2.93964 -2.93964,-6.94824 0,-4.0086 2.93964,-6.681 2.93964,-2.93964 6.94824,-2.93964 4.0086,0 6.681,2.93964 2.93964,2.6724 2.93964,6.681 z m -75.89616,75.09444 q 0,4.0086 -2.93964,6.94824 -2.6724,2.6724 -6.681,2.6724 -4.0086,0 -6.94824,-2.6724 -2.93964,-2.93964 -2.93964,-6.94824 0,-4.0086 2.93964,-6.681 2.93964,-2.93964 6.94824,-2.93964 4.0086,0 6.681,2.93964 2.93964,2.6724 2.93964,6.681 z"
         style="font-family:'Sheets Braille'"
         id="path833" />
    </g>
    <g
       aria-label="K"
       id="text8"
       style="line-height:1.25">
      <path
         d="m 421.25595,138.0397 q 0,8.0172 -5.87928,13.89648 -5.61204,5.61204 -13.62924,5.61204 -8.0172,0 -13.89648,-5.61204 -5.61204,-5.87928 -5.61204,-13.89648 0,-8.0172 5.61204,-13.62924 5.87928,-5.87928 13.89648,-5.87928 8.0172,0 13.62924,5.87928 5.87928,5.61204 5.87928,13.62924 z m 66.00828,150.18887 q 0,4.0086 -2.93964,6.94824 -2.93964,2.93964 -6.94824,2.93964 -4.0086,0 -6.94824,-2.93964 -2.6724,-2.93964 -2.6724,-6.94824 0,-4.0086 2.6724,-6.681 2.93964,-2.93964 6.94824,-2.93964 4.0086,0 6.94824,2.93964 2.93964,2.6724 2.93964,6.681 z m 0,-75.09444 q 0,4.0086 -2.93964,6.94824 -2.93964,2.93964 -6.94824,2.93964 -4.0086,0 -6.94824,-2.93964 -2.6724,-2.93964 -2.6724,-6.94824 0,-4.0086 2.6724,-6.681 2.93964,-2.93964 6.94824,-2.93964 4.0086,0 6.94824,2.93964 2.93964,2.6724 2.93964,6.681 z m -75.62892,0 q 0,4.0086 -2.93964,6.94824 -2.93964,2.93964 -6.94824,2.93964 -4.0086,0 -6.94824,-2.93964 -2.6724,-2.93964 -2.6724,-6.94824 0,-4.0086 2.6724,-6.681 2.93964,-2.93964 6.94824,-2.93964 4.0086,0 6.94824,2.93964 2.93964,2.6724 2.93964,6.681 z m 75.62892,-75.09443 q 0,4.0086 -2.93964,6.94824 -2.93964,2.6724 -6.94824,2.6724 -4.0086,0 -6.94824,-2.6724 -2.6724,-2.93964 -2.6724,-6.94824 0,-4.0086 2.6724,-6.681 2.93964,-2.93964 6.94824,-2.93964 4.0086,0 6.94824,2.93964 2.93964,2.6724 2.93964,6.681 z m -66.00828,150.18887 q 0,8.28444 -5.87928,13.89648 -5.61204,5.61204 -13.62924,5.61204 -8.0172,0 -13.89648,-5.61204 -5.61204,-5.61204 -5.61204,-13.89648 0,-8.0172 5.61204,-13.62924 5.87928,-5.61204 13.89648,-5.61204 8.0172,0 13.62924,5.61204 5.87928,5.61204 5.87928,13.62924 z"
         style="font-family:'Sheets Braille'"
         id="path836" />
    </g>
  </g>
</svg>
